<svg xmlns="http://www.w3.org/2000/svg" width="391" height="329" fill="none"><path fill="#fff" d="M57.99 56.7c0 1.6-.6 2.6-1.8 3l-29.1 13.2c-2.2 1-3.7.4-4.5-1.8-1.6-4-3.2-7.7-4.8-11.1-1.4-3.6-3.6-7.6-6.6-12-.8-1-1.1-1.9-.9-2.7.4-1 1.1-1.7 2.1-2.1l27.6-15c.4-.4 1.1-.5 2.1-.3s1.7.7 2.1 1.5l3.6 9v-.3c1.8 2.4 3.5 4.9 5.1 7.5 1.8 2.4 3.5 5.6 5.1 9.6v1.5Zm-.9 108.9c0 11.8-.3 23.5-.9 35.1-.6 11.4-1.9 22.4-3.9 33-2 10.4-4.9 20.1-8.7 29.1-3.6 9.2-8.5 17.1-14.7 23.7l.3-.3c-1.4 2.2-3 4.4-4.8 6.6-1.6 2.2-3.4 4.4-5.4 6.6-.8 1-1.6 1.9-2.4 2.7l-2.4 3c-.2.4-.6.7-1.2.9-.4.2-.8.3-1.2.3l-.9-.3c-1.6 0-2.7-.7-3.3-2.1-.4-1.2-.1-2.3.9-3.3l12.3-29.1c2-10.4 3.3-21.1 3.9-32.1.6-11.2.9-22.5.9-33.9 0-4.6.1-9.2.3-13.8.4-4.6.5-9.1.3-13.5 0-7.6-.1-15.3-.3-23.1-.2-7.8-.3-15.5-.3-23.1 0-7-1.1-13.2-3.3-18.6-2-5.6-6.7-10-14.1-13.2-1.2-.6-1.8-1.5-1.8-2.7 0-1.4.5-2.5 1.5-3.3 1-.6 1.9-1.1 2.7-1.5 1-.6 2.2-1.1 3.6-1.5.4-.4.9-.7 1.5-.9.8-.2 1.5-.4 2.1-.6h.3c6.6-2.8 12.6-5.8 18-9s10.8-6.5 16.2-9.9c1.4-.8 2.6-.9 3.6-.3 1 .6 1.4 1.6 1.2 3-.6 9-.9 18.9-.9 29.7v13.5c.2 4.4.3 9 .3 13.8.2 5.2.3 11 .3 17.4.2 6.4.3 12.3.3 17.7Zm77.625-108.9c0 1.6-.6 2.6-1.8 3l-29.1 13.2c-1 .4-1.9.5-2.7.3-.8-.4-1.4-1.1-1.8-2.1-1.6-4-3.1-7.7-4.5-11.1-1.4-3.6-3.7-7.6-6.9-12-1.4-2-1-3.6 1.2-4.8l26.7-12c1.6-.8 3-.4 4.2 1.2l4.5 6v-.3c1.8 2.4 3.5 4.9 5.1 7.5 1.8 2.4 3.5 5.6 5.1 9.6v1.5Zm-5.7 194.7c1 1 1.4 2.1 1.2 3.3-.2 1-.9 1.7-2.1 2.1-1.4.4-3.4.6-6 .6H113.415c-1.4 0-2.7.1-3.9.3h-3.6c-1 0-2.2.1-3.6.3h-3.3c-.4 0-.8.1-1.2.3h.6c-.6.2-1.8.3-3.6.3-1.6.2-3.1.3-4.5.3-1.2.2-1.9.3-2.1.3h-2.1c-1.2 0-2.1-.4-2.7-1.2-.4-.4-.5-1-.3-1.8l.3-1.2.9-4.5c.6-3.2 1.3-6.9 2.1-11.1.8-4.4 1.5-8.9 2.1-13.5.8-4.8 1.2-8.9 1.2-12.3.2-3.2.3-6.2.3-9 0-3 .1-5.9.3-8.7.6-17.4.9-34.9.9-52.5v-11.7c0-4-.2-8-.6-12-2.4-3.8-5.2-7.1-8.4-9.9-3.2-3-6.5-5.7-9.9-8.1-1-.4-1.5-1.2-1.5-2.4l.3-.9c0-1.8 1-2.9 3-3.3 1.2-.2 3.1-.5 5.7-.9s5.4-.9 8.4-1.5 5.8-1.2 8.4-1.8c2.8-.6 4.8-1.2 6-1.8h.9c.4 0 .8-.1 1.2-.3h-.3c1-.4 2.1-.7 3.3-.9 1.4-.4 2.3-.7 2.7-.9l13.8-5.1c1.2-.4 2.2-.2 3 .6 1 .8 1.3 1.9.9 3.3-.6 2.2-1.1 5.2-1.5 9-.4 3.8-.7 7.1-.9 9.9-1.8 34.2-2.7 68.5-2.7 102.9v20.7c0 4.2.2 8.5.6 12.9.6 4.2 2.4 7.6 5.4 10.2Zm254.121 2.7c0 1.8-.2 3-.6 3.6-.4.6-.9.9-1.5.9-.4 0-.9-.2-1.5-.6-.6-.2-1.2-.3-1.8-.3l-36.9-.6c-1 0-2.1-.6-3.3-1.8l4.5-78.3v-22.2c0-5.6-.4-11.6-1.2-18-.6-6.4-2-12.2-4.2-17.4-2-5.2-4.9-9.5-8.7-12.9-3.6-3.6-8.3-5.4-14.1-5.4-6 0-10.8 1.8-14.4 5.4-3.4 3.6-6 8.2-7.8 13.8-1.8 5.4-3 11.6-3.6 18.6-.4 6.8-.6 13.5-.6 20.1V222.6c0 2.8.5 6.4 1.5 10.8 1 4.2 1.9 8.1 2.7 11.7.6 2.2 1.1 3.8 1.5 4.8.4.8.6 2.3.6 4.5s-1.1 3.3-3.3 3.3h-1.2l-19.8-.6-16.8.6c-2.2 0-3.3-1.1-3.3-3.3v-6c.2-.6.4-.9.6-.9.4-.2.7-.6.9-1.2.2-.8.5-3 .9-6.6.4-3.6.8-8.6 1.2-15 .4-6.6.7-13.3.9-20.1.4-7 .6-13.7.6-20.1.2-6.4.3-11.3.3-14.7 0-7.2-.1-14.8-.3-22.8-.2-8-1.3-15.4-3.3-22.2-1.8-7-4.8-12.7-9-17.1-4.2-4.6-10.3-6.9-18.3-6.9-5.4 0-9.8 1.9-13.2 5.7-3.2 3.8-5.7 8.7-7.5 14.7-1.8 6-3 12.8-3.6 20.4-.6 7.6-.9 15.1-.9 22.5 0 4.6.1 9 .3 13.2.2 4 .3 7.9.3 11.7v-.3c.6 9.2.7 18.5.3 27.9-.4 9.2.2 18.4 1.8 27.6l1.5 9c.4 1.2.2 2.2-.6 3-.8.8-1.7 1.1-2.7.9-4.6-.6-10.4-.9-17.4-.9-3.2 0-6.2.1-9 .3-2.6.2-4.7.6-6.3 1.2-1.4.4-2.6.3-3.6-.3-.8-.8-1.1-1.9-.9-3.3 1-3.6 1.6-7.5 1.8-11.7.4-4.4.8-8.6 1.2-12.6.6-3 .9-6.1.9-9.3 0-6.4.1-12.7.3-18.9.2-6.4.5-12.8.9-19.2.6-10.2.9-20.1.9-29.7v-12.6c0-5.6-.1-10.4-.3-14.4 0-4-.6-7.5-1.8-10.5-1.2-3.2-3.2-6.3-6-9.3-2.8-3-6.9-6.4-12.3-10.2-1-.8-1.6-1.7-1.8-2.7 0-1 .5-1.8 1.5-2.4 1-.6 2-.9 3-.9 1-.2 2-.3 3-.3 3.2 0 6.8-.3 10.8-.9 4-.6 8-1.3 12-2.1 4-1 7.9-2 11.7-3 3.8-1.2 7.1-2.4 9.9-3.6 1.2.4 2.1 1.3 2.7 2.7.6 1.2 1 2.6 1.2 4.2.4 1.6.6 3.3.6 5.1 0 1.8-.1 3.4-.3 4.8l5.4-2.4c2-.8 3.6-1.5 4.8-2.1 5.2-2.2 10.5-4.3 15.9-6.3 5.6-2 11.6-3 18-3 1.8 0 4.1.2 6.9.6 2.8.4 5.7 1 8.7 1.8 3 .8 5.8 1.7 8.4 2.7 2.8 1 5.1 2.1 6.9 3.3 2.6 2.4 5.2 5.5 7.8 9.3 5.4-3.2 10.2-6 14.4-8.4 4.2-2.6 8.3-4.7 12.3-6.3 4-1.6 8.1-2.5 12.3-2.7 4.2-.4 8.9.1 14.1 1.5 13.6 3.4 23.8 10.1 30.6 20.1 6.8 10 10.2 22.8 10.2 38.4 0 5.4-.2 10.9-.6 16.5-.4 5.6-.8 10.9-1.2 15.9-.4 4.4-.8 8.6-1.2 12.6-.4 4-.6 7.7-.6 11.1v41.7c0 1.2.5 3.1 1.5 5.7v1.5c.2.6.3 1.1.3 1.5.4.4.8.7 1.2.9.6 0 1.3.2 2.1.6.6.2 1.2.7 1.8 1.5.6.6.9 1.1.9 1.5Zm-98.4-153.3c-.6 0-1.7.6-3.3 1.8.8-.4 1.8-1 3-1.8h.3Z"/><style>
    path  {fill: #000;}
    @media ( prefers-color-scheme: dark ) {
        path {fill: #fff;}
    }
    </style></svg>