<svg width="200" height="200" viewBox="0 0 200 200" fill="none" xmlns="http://www.w3.org/2000/svg">
<path d="M96.4795 113.77L99.7544 113.103C99.7544 113.103 94.9669 146.4 83.7076 163.727C73.4111 179.572 50.3255 193.415 38.0435 200H162.546C150.818 193.254 128.352 178.953 118.257 163.237C107.208 146.035 102.538 113.103 102.538 113.103L105.649 113.77V112.103L103.029 110.437V103.439L112.854 106.771V103.439L103.029 98.1066V90.1085L101.719 88.7755H100.409L99.0994 90.1085V98.1066L89.2749 103.439V106.771L99.0994 103.439V110.437L96.4795 112.103V113.77Z" fill="#D9D9D9"/>
<path d="M200 0H0V200H38.0435C50.3255 193.415 73.4111 179.572 83.7076 163.727C94.9669 146.4 99.7544 113.103 99.7544 113.103L96.4795 113.77V112.103L99.0994 110.437V103.439L89.2749 106.771V103.439L99.0994 98.1066V90.1085L100.409 88.7755H101.719L103.029 90.1085V98.1066L112.854 103.439V106.771L103.029 103.439V110.437L105.649 112.103V113.77L102.538 113.103C102.538 113.103 107.208 146.035 118.257 163.237C128.352 178.953 150.818 193.254 162.546 200H200V0Z" fill="#303030"/>
</svg>
